<svg width="24" height="24" viewBox="0 0 24 24" fill="none" xmlns="http://www.w3.org/2000/svg">
<path d="M12 20.0625C9.54609 20.0625 6.77859 19.5183 4.59703 18.6094C3.79688 18.2723 3.11156 17.7272 2.55141 17.2969C2.52362 17.2756 2.49044 17.2626 2.45562 17.2592C2.42081 17.2558 2.38574 17.2622 2.35438 17.2777C2.32302 17.2932 2.29663 17.3172 2.27818 17.3469C2.25974 17.3767 2.24998 17.411 2.25 17.4459V18.0356C2.25 19.3514 3.35109 20.5303 5.35031 21.3553C7.13859 22.0936 9.50016 22.5 12 22.5C14.4998 22.5 16.8609 22.0936 18.6497 21.3553C20.6489 20.5312 21.75 19.3514 21.75 18.0356V17.4459C21.75 17.411 21.7403 17.3767 21.7218 17.3469C21.7034 17.3172 21.677 17.2932 21.6456 17.2777C21.6143 17.2622 21.5792 17.2558 21.5444 17.2592C21.5096 17.2626 21.4764 17.2756 21.4486 17.2969C20.8884 17.7267 20.2031 18.2723 19.4025 18.6094C17.2209 19.5183 14.4539 20.0625 12 20.0625Z" fill="#64DF45"/>
<path d="M21.75 5.93016C21.712 4.63406 20.6166 3.47391 18.6562 2.65594C16.8628 1.91063 14.5003 1.5 12 1.5C9.49969 1.5 7.13719 1.91063 5.34797 2.65594C3.38953 3.47203 2.29406 4.62984 2.25422 5.92266L2.25 6.75C2.25 7.05047 2.49375 7.5225 2.93578 7.90922C3.4575 8.36531 4.23188 8.81531 5.17547 9.20906C7.18313 10.0481 9.73453 10.5469 12 10.5469C14.2655 10.5469 16.8169 10.0462 18.8245 9.20719C19.7681 8.81344 20.5425 8.36344 21.0642 7.90734C21.5062 7.52297 21.75 7.05094 21.75 6.75V5.93016Z" fill="#64DF45"/>
<path d="M19.4025 10.5937C17.2214 11.5045 14.4539 12.0469 12 12.0469C9.5461 12.0469 6.7786 11.5045 4.59704 10.5937C3.79689 10.2586 3.11157 9.71297 2.55142 9.28125C2.5235 9.2599 2.49015 9.24682 2.45517 9.24351C2.42018 9.2402 2.38497 9.24679 2.35354 9.26252C2.32212 9.27826 2.29575 9.30251 2.27745 9.33251C2.25914 9.36251 2.24963 9.39705 2.25001 9.43219V10.875C2.25001 11.1755 2.49376 11.5537 2.93579 11.9405C3.45751 12.397 4.23189 12.8466 5.17548 13.2408C7.18314 14.0784 9.73454 14.5781 12 14.5781C14.2655 14.5781 16.8169 14.0775 18.8245 13.2389C19.7681 12.8447 20.5425 12.3952 21.0642 11.9386C21.5063 11.5533 21.75 11.1755 21.75 10.875V9.43219C21.75 9.3972 21.7403 9.36291 21.7218 9.33319C21.7034 9.30347 21.677 9.2795 21.6456 9.26399C21.6143 9.24848 21.5792 9.24206 21.5444 9.24544C21.5096 9.24882 21.4764 9.26187 21.4486 9.28312C20.8884 9.71297 20.2031 10.2586 19.4025 10.5937Z" fill="#64DF45"/>
<path d="M19.4025 14.625C17.2209 15.5348 14.4539 16.0781 12 16.0781C9.5461 16.0781 6.7786 15.5348 4.59703 14.625C3.79688 14.2889 3.11157 13.7433 2.55141 13.3125C2.52356 13.2912 2.49029 13.2781 2.45539 13.2748C2.42049 13.2714 2.38535 13.278 2.35396 13.2936C2.32257 13.3092 2.29619 13.3333 2.27781 13.3632C2.25944 13.393 2.2498 13.4274 2.25 13.4625V14.8594C2.25 15.1598 2.49375 15.5377 2.93532 15.9239C3.45703 16.3805 4.23188 16.83 5.17547 17.2242C7.18313 18.0619 9.73407 18.5625 12 18.5625C14.2659 18.5625 16.8169 18.0619 18.8245 17.2233C19.7681 16.8291 20.5425 16.3795 21.0642 15.923C21.5063 15.5363 21.75 15.158 21.75 14.8594V13.4625C21.75 13.4275 21.7403 13.3932 21.7218 13.3635C21.7034 13.3338 21.677 13.3098 21.6456 13.2943C21.6143 13.2788 21.5792 13.2724 21.5444 13.2758C21.5096 13.2791 21.4764 13.2922 21.4486 13.3134C20.8884 13.7433 20.2031 14.2889 19.4025 14.625Z" fill="#64DF45"/>
</svg>
