<svg width="569" height="618" viewBox="0 0 569 618" fill="none" xmlns="http://www.w3.org/2000/svg">
<path fill-rule="evenodd" clip-rule="evenodd" d="M275.379 9.4248C339.384 -4.19937 410.873 -7.01684 465.958 28.3089C522.196 64.3745 555.102 130.212 566.402 196.058C576.833 256.835 552.777 316.689 524.888 371.688C500.572 419.641 456.933 450.02 418.538 487.658C371.578 533.691 340.698 608.671 275.379 616.277C209.855 623.907 150.684 572.384 105.76 524.078C66.2066 481.546 60.1861 421.605 42.8025 366.186C25.6469 311.494 -13.8552 256.896 4.97002 202.756C23.7427 148.766 89.3548 131.82 135.853 98.5758C181.877 65.6708 220.043 21.2039 275.379 9.4248Z" fill="#64DF45"/>
</svg>
