<svg width="17" height="26" viewBox="0 0 17 26" fill="none" xmlns="http://www.w3.org/2000/svg">
<path d="M12.7506 8.66836C13.8776 8.66836 14.9585 8.21172 15.7554 7.39891C16.5523 6.58609 17 5.48368 17 4.33418C17 3.18468 16.5523 2.08227 15.7554 1.26945C14.9585 0.456635 13.8776 0 12.7506 0L4.25187 0C3.12552 0 2.04531 0.456368 1.24886 1.26871C0.452419 2.08105 0.00497992 3.18282 0.00497992 4.33164C0.00497992 5.48046 0.452419 6.58223 1.24886 7.39457C2.04531 8.20691 3.12552 8.66328 4.25187 8.66328C3.12486 8.66328 2.04402 9.11992 1.2471 9.93273C0.450192 10.7455 0.00249058 11.848 0.00249058 12.9975C0.00249058 14.147 0.450192 15.2494 1.2471 16.0622C2.04402 16.875 3.12486 17.3316 4.25187 17.3316C3.41142 17.3311 2.5897 17.5848 1.89062 18.0607C1.19154 18.5365 0.6465 19.2131 0.32442 20.0049C0.00233966 20.7966 -0.0823126 21.668 0.0811676 22.5089C0.244648 23.3497 0.648918 24.1223 1.24286 24.7288C1.83679 25.3353 2.59372 25.7485 3.41793 25.9162C4.24213 26.084 5.09658 25.9986 5.87324 25.6711C6.64991 25.3435 7.31389 24.7883 7.78122 24.0759C8.24856 23.3634 8.49826 22.5256 8.49876 21.6684V8.66836H12.7506ZM12.7506 8.66836C11.9107 8.66836 11.0896 8.92241 10.3912 9.39837C9.69278 9.87434 9.14845 10.5508 8.82701 11.3424C8.50557 12.1339 8.42147 13.0048 8.58534 13.8451C8.7492 14.6853 9.15368 15.4571 9.74762 16.0629C10.3416 16.6687 11.0983 17.0813 11.9221 17.2484C12.7459 17.4155 13.5998 17.3298 14.3758 17.0019C15.1519 16.6741 15.8151 16.1189 16.2818 15.4065C16.7484 14.6942 16.9975 13.8567 16.9975 13C16.9974 11.8512 16.5499 10.7495 15.7535 9.93722C14.9571 9.12491 13.8769 8.66849 12.7506 8.66836Z" fill="#64DF45"/>
</svg>
