<svg width="24" height="24" viewBox="0 0 24 24" fill="none" xmlns="http://www.w3.org/2000/svg">
<path d="M7.37501 16.781L8.62501 15.219L4.60101 12L8.62501 8.781L7.37501 7.219L2.37501 11.219C2.25786 11.3127 2.16328 11.4315 2.09828 11.5667C2.03329 11.7019 1.99954 11.85 1.99954 12C1.99954 12.15 2.03329 12.2981 2.09828 12.4333C2.16328 12.5685 2.25786 12.6873 2.37501 12.781L7.37501 16.781ZM16.625 7.219L15.375 8.781L19.399 12L15.375 15.219L16.625 16.781L21.625 12.781C21.7422 12.6873 21.8367 12.5685 21.9017 12.4333C21.9667 12.2981 22.0005 12.15 22.0005 12C22.0005 11.85 21.9667 11.7019 21.9017 11.5667C21.8367 11.4315 21.7422 11.3127 21.625 11.219L16.625 7.219Z" fill="#64DF45"/>
<path d="M14.976 3.216L10.976 21.216L9.02301 20.782L13.023 2.782L14.976 3.216Z" fill="#64DF45"/>
</svg>
